<?xml version="1.0" standalone="no"?>
<!DOCTYPE svg PUBLIC "-//W3C//DTD SVG 20010904//EN"
 "http://www.w3.org/TR/2001/REC-SVG-20010904/DTD/svg10.dtd">
<svg version="1.0" xmlns="http://www.w3.org/2000/svg"
 width="1024.000000pt" height="1024.000000pt" viewBox="0 0 1024.000000 1024.000000"
 preserveAspectRatio="xMidYMid meet">

<g transform="translate(0.000000,1024.000000) scale(0.100000,-0.100000)"
fill="#000000" stroke="none">
<path d="M4893 8869 c-765 -43 -1556 -355 -2189 -864 -179 -144 -454 -429
-605 -630 -96 -126 -299 -445 -299 -468 0 -4 745 -7 1655 -7 l1655 0 2 318 3
317 292 3 293 2 6 -24 c3 -14 4 -416 2 -895 -3 -823 -2 -869 14 -854 10 9 15
20 11 26 -3 5 -2 7 4 4 6 -4 68 59 139 140 71 80 153 173 182 205 29 33 49 64
46 70 -4 6 -2 8 4 4 6 -3 39 26 74 66 34 39 80 90 101 113 37 42 48 63 25 49
-7 -4 -8 -3 -4 5 4 6 11 9 16 6 8 -5 103 97 299 319 57 65 112 121 122 123 19
5 27 33 10 33 -12 0 -78 127 -102 197 -11 32 -29 98 -40 148 -49 215 -99 339
-192 483 -147 227 -384 409 -602 462 -128 31 -288 43 -402 30 -99 -11 -257
-52 -268 -70 -21 -34 -25 18 -25 345 l0 355 -47 -2 c-27 0 -107 -4 -180 -9z
m-1143 -743 c0 -2 -8 -10 -17 -17 -16 -13 -17 -12 -4 4 13 16 21 21 21 13z
m-139 -169 c-10 -9 -11 -8 -5 6 3 10 9 15 12 12 3 -3 0 -11 -7 -18z m-3 -302
c-3 -3 -9 2 -12 12 -6 14 -5 15 5 6 7 -7 10 -15 7 -18z m43 -72 c13 -16 12
-17 -3 -4 -10 7 -18 15 -18 17 0 8 8 3 21 -13z m74 -73 c10 -11 16 -20 13 -20
-3 0 -13 9 -23 20 -10 11 -16 20 -13 20 3 0 13 -9 23 -20z m70 -48 c-3 -3 -11
0 -18 7 -9 10 -8 11 6 5 10 -3 15 -9 12 -12z"/>
<path d="M7350 7400 c0 -6 0 -13 0 -17 0 -5 6 -8 13 -8 6 0 12 -10 12 -21 0
-12 9 -31 19 -43 11 -12 14 -21 7 -21 -9 0 -9 -5 0 -22 17 -31 23 -224 10
-278 -7 -25 -13 -49 -14 -55 -1 -5 -6 -16 -11 -24 -7 -11 7 -13 78 -10 47 2
86 2 86 0 0 -10 -65 -87 -190 -226 -367 -409 -771 -874 -710 -818 9 9 23 5 60
-18 96 -59 159 -73 325 -73 143 0 154 1 231 31 159 60 281 163 365 308 167
291 155 635 -35 973 -49 86 -61 103 -71 94 -4 -4 -5 1 -2 10 3 9 -1 22 -11 30
-13 11 -14 11 -7 -1 5 -9 4 -12 -3 -7 -6 4 -9 13 -6 20 3 7 -2 19 -11 26 -13
11 -15 10 -9 -6 9 -24 0 -16 -16 15 -10 19 -10 22 2 15 15 -8 -7 19 -69 88
-24 26 -43 43 -43 38z m194 -256 c3 -8 2 -12 -4 -9 -6 3 -10 10 -10 16 0 14 7
11 14 -7z"/>
<path d="M1511 6238 c-47 -152 -103 -415 -125 -587 -23 -176 -39 -543 -32
-700 8 -171 56 -511 56 -399 0 42 39 157 82 243 86 171 210 321 373 452 361
290 858 411 1343 328 l32 -6 0 351 0 350 -859 0 -859 0 -11 -32z"/>
<path d="M3853 4696 l5 -1575 43 -58 c142 -194 386 -369 624 -449 154 -51 231
-65 418 -71 l177 -6 0 -588 0 -589 99 0 c116 0 334 22 511 50 459 75 968 264
1365 508 28 17 70 43 95 58 74 45 298 211 410 305 246 205 532 533 704 808 15
25 31 48 35 51 5 4 64 103 139 235 13 22 37 69 53 105 17 36 44 92 60 125 35
72 119 288 119 307 0 7 14 56 30 108 39 124 105 449 126 620 30 245 27 652 -7
940 -16 137 -24 159 -33 92 -8 -65 -50 -189 -89 -267 -153 -306 -457 -573
-780 -685 -115 -40 -185 -56 -317 -76 -555 -81 -1018 278 -1106 856 -7 52 -14
124 -14 160 l0 65 -23 -25 c-41 -45 -381 -433 -445 -508 l-63 -74 78 -86 c222
-248 805 -884 1193 -1302 58 -63 205 -223 325 -355 l219 -240 -415 -3 c-227
-1 -421 1 -429 4 -8 4 -19 6 -23 5 -5 -1 -5 4 -2 10 9 13 -64 90 -78 82 -6 -4
-7 -1 -2 6 9 15 -63 93 -78 84 -6 -3 -7 -1 -3 5 4 6 -30 50 -75 99 -88 94 -88
94 -338 366 -90 98 -168 174 -173 170 -7 -3 -8 -1 -4 6 9 13 -112 143 -125
135 -5 -3 -6 1 -4 8 6 14 -62 87 -80 88 -5 0 -10 5 -10 12 0 18 -118 147 -131
143 -6 -2 -11 2 -10 9 1 11 -89 116 -112 129 -4 3 -6 -303 -4 -679 l3 -684
-298 2 -298 3 -3 1568 -2 1567 -632 0 -631 0 6 -1574z m2492 -905 c3 -5 2 -12
-3 -15 -5 -3 -9 1 -9 9 0 17 3 19 12 6z m46 -1031 c34 -10 67 -16 72 -13 6 3
7 1 4 -4 -8 -13 40 -46 53 -38 6 4 7 -1 3 -11 -5 -14 -3 -16 11 -11 9 4 15 3
12 -1 -3 -5 8 -25 25 -45 16 -20 42 -62 57 -94 23 -50 27 -71 27 -153 0 -82
-4 -103 -27 -153 -38 -80 -117 -160 -197 -200 -60 -29 -74 -32 -161 -32 -86 0
-101 3 -162 32 -236 112 -298 418 -123 612 24 26 31 41 25 49 -7 8 -7 9 1 3 7
-6 29 2 60 22 94 58 210 72 320 37z"/>
<path d="M3110 4506 c-202 -47 -352 -150 -471 -320 -63 -90 -98 -177 -125
-306 -19 -86 -15 -351 4 -358 6 -2 9 -9 6 -17 -7 -17 58 -210 91 -272 14 -26
23 -38 20 -27 -20 78 -30 282 -17 364 15 96 49 206 77 250 14 22 25 43 25 48
0 15 50 77 118 145 101 102 245 166 353 155 l39 -4 0 183 c0 140 -3 183 -12
182 -7 0 -56 -11 -108 -23z m-583 -738 c-3 -8 -6 -5 -6 6 -1 11 2 17 5 13 3
-3 4 -12 1 -19z"/>
</g>
</svg>
